# xmcd
#
# Track frame offsets:
#	182
#	12410
#	25010
#	41292
#	52657
#	71142
#	83902
#	98587
#	109732
#	121450
#	135895
#	150130
#
# Disc length: 2246 seconds
#
# Revision: 1
# Processed by: cddbd v1.4b42PL0 Copyright (c) Steve Scherf et al.
# Submitted via: audiograbber 1.80
#
DISCID=8008c40c
DTITLE=Varios - Memórias Musica Sertaneja   17
DYEAR=1900
DGENRE=
TTITLE0=Tonico e Tinoco - Destinos Iguais
TTITLE1=Tião Carreiro e Carreirinho - Rei Sem Coroa
TTITLE2=Vieira e Vieirinha - Nova Londrina
TTITLE3=Zé Carreiro e Carreirinho - Bombardeio
TTITLE4=Carlos Cesar e Cristiano - Vai e Vem do Carreiro
TTITLE5=Duo Ciriema - Não Beba mais não
TTITLE6=Biá e Dino Franco - Lição de Moral
TTITLE7=Vieira e Vieirinha - Jogo da Douradinha
TTITLE8=Os Filhos de Goias - Gaiola de Aço
TTITLE9=Zico e Zeca - Capelinha de Chico Mineiro
TTITLE10=Jacó e Jacozinho - Florzinha do Campo
TTITLE11=Roberto e Meirinho - Lágrimas
EXTD=
EXTT0=
EXTT1=
EXTT2=
EXTT3=
EXTT4=
EXTT5=
EXTT6=
EXTT7=
EXTT8=
EXTT9=
EXTT10=
EXTT11=
PLAYORDER=
